:FULLY-SPECIFIED
:FORCE-ALL-JOINTS-BE-3DOF
:DEGREES
238
root 5.62035 15.6559 -25.8184 9.68793 24.2731 -6.62346
lfemur -39.3357 32.9208 -5.87175
ltibia 52.07 -0 0
lfoot -15.6392 5.65459 0.00904566
ltoes -0.194191 0 0
rfemur -16.6255 -10.0738 4.10886
rtibia 35.0888 -0 0
rfoot -39.2772 -9.49081 0.787482
rtoes 57.1502 -0 0
lowerback 1.00087 -2.44717 2.42942
upperback -1.09739 -3.16903 2.95817
thorax -1.6449 -1.58864 1.75419
lowerneck -10.6474 -2.25823 0.448719
upperneck 1.56573 -3.06718 0.178194
head 2.33048 -1.51608 -0.174849
lclavicle 1.0461e-014 -5.96354e-015 0
lhumerus -55.2856 -34.7984 121.996
lradius 62.1561 -0 0
lwrist 17.9132 0 0
lhand 7.73352 13.4182 0.107312
lfingers 7.12502 -0 0
lthumb 32.9587 40.2937 0.0555347
rclavicle 1.0461e-014 -5.96354e-015 0
rhumerus -35.2419 -13.8934 -68.1056
rradius 94.5525 -0 0
rwrist -34.6617 0 0
rhand 2.75775 -31.3752 0.911902
rfingers 7.12502 -0 0
rthumb 26.811 -48.384 5.68581
239
root 5.71921 15.6856 -25.8031 9.49721 26.0151 -6.70257
lfemur -39.832 32.6546 -6.89796
ltibia 51.8351 -0 0
lfoot -15.9816 5.55366 0.00844256
ltoes 2.82563 -0 0
rfemur -15.2716 -8.322 4.05979
rtibia 34.4287 -0 0
rfoot -40.4852 -11.9927 0.734694
rtoes 56.9263 -0 0
lowerback 0.918506 -2.5338 2.45967
upperback -1.19438 -3.27953 3.15856
thorax -1.68774 -1.64293 1.94486
lowerneck -10.4308 -2.52402 0.377345
upperneck 1.68171 -3.41012 0.144751
head 2.32926 -1.68842 -0.18924
lclavicle 1.0461e-014 -5.96354e-015 0
lhumerus -55.5047 -34.1361 122.207
lradius 62.4042 -0 0
lwrist 17.7723 0 0
lhand 6.78382 12.9863 0.100152
lfingers 7.12502 -0 0
lthumb 32.0564 40.0585 0.0518301
rclavicle 1.0461e-014 -5.96354e-015 0
rhumerus -35.5358 -16.0341 -67.7482
rradius 92.0509 -0 0
rwrist -35.2041 0 0
rhand -4.63192 -31.8627 0.84868
rfingers 7.12502 -0 0
rthumb 19.8609 -51.6379 5.29049
240
root 5.81806 15.7152 -25.7879 9.30081 27.7568 -6.78946
lfemur -40.321 32.381 -7.91832
ltibia 51.6002 -0 0
lfoot -16.3239 5.45274 0.00723639
ltoes 5.84545 -0 0
rfemur -13.9247 -6.5695 4.05259
rtibia 33.7685 -0 0
rfoot -41.6898 -14.4929 0.629243
rtoes 56.7024 -0 0
lowerback 0.836088 -2.62037 2.49005
upperback -1.29176 -3.38969 3.35916
thorax -1.73077 -1.69707 2.13556
lowerneck -10.2138 -2.78954 0.30495
upperneck 1.79794 -3.75299 0.1106
head 2.32809 -1.86077 -0.203629
lclavicle 1.0461e-014 -5.96354e-015 0
lhumerus -55.7192 -33.4731 122.415
lradius 62.6523 -0 0
lwrist 17.6314 0 0
lhand 5.8342 12.5546 0.0858352
lfingers 7.12502 -0 0
lthumb 31.1541 39.8234 0.0444219
rclavicle 1.0461e-014 -5.96354e-015 0
rhumerus -35.8471 -18.173 -67.3751
rradius 89.5493 -0 0
rwrist -35.7466 0 0
rhand -12.0206 -32.338 0.723292
rfingers 7.12502 -0 0
rthumb 12.9506 -54.817 4.50715
241
root 5.91692 15.7449 -25.7726 9.0981 29.4983 -6.88466
lfemur -40.8028 32.1001 -8.93278
ltibia 51.3653 -0 0
lfoot -16.6663 5.35183 0.00542719
ltoes 8.86526 -0 0
rfemur -12.582 -4.81731 4.08674
rtibia 33.1084 -0 0
rfoot -42.8886 -16.9903 0.471377
rtoes 56.4785 -0 0
lowerback 0.753619 -2.70691 2.52056
upperback -1.38954 -3.49951 3.55997
thorax -1.77397 -1.75107 2.32632
lowerneck -9.99647 -3.05479 0.231531
upperneck 1.91441 -4.09579 0.0757373
head 2.32695 -2.03312 -0.218016
lclavicle 1.0461e-014 -5.96354e-015 0
lhumerus -55.9292 -32.8095 122.617
lradius 62.9004 -0 0
lwrist 17.4905 0 0
lhand 4.88472 12.1232 0.0643657
lfingers 7.12502 -0 0
lthumb 30.2518 39.5884 0.033312
rclavicle 1.0461e-014 -5.96354e-015 0
rhumerus -36.1774 -20.3098 -66.9847
rradius 87.0478 -0 0
rwrist -36.2891 0 0
rhand -19.4078 -32.7932 0.53783
rfingers 7.12502 -0 0
rthumb 6.1022 -57.8751 3.34997
242
root 6.01577 15.7745 -25.7574 8.88835 31.2394 -6.98878
lfemur -41.2772 31.812 -9.94129
ltibia 51.1304 -0 0
lfoot -17.0086 5.25092 0.00301503
ltoes 11.8851 -0 0
rfemur -11.2412 -3.0664 4.16193
rtibia 32.4482 -0 0
rfoot -44.0793 -19.4838 0.261466
rtoes 56.2545 -0 0
lowerback 0.671098 -2.7934 2.55119
upperback -1.48772 -3.60899 3.76099
thorax -1.81735 -1.80493 2.51711
lowerneck -9.77871 -3.31976 0.157086
upperneck 2.03115 -4.43852 0.0401605
head 2.32586 -2.20547 -0.232401
lclavicle 1.0461e-014 -5.96354e-015 0
lhumerus -56.1349 -32.1453 122.816
lradius 63.1484 -0 0
lwrist 17.3496 0 0
lhand 3.93542 11.6922 0.0357508
lfingers 7.12502 -0 0
lthumb 29.3496 39.3536 0.0185034
rclavicle 1.0461e-014 -5.96354e-015 0
rhumerus -36.5283 -22.4444 -66.5753
rradius 84.5462 -0 0
rwrist -36.8315 0 0
rhand -26.7931 -33.2208 0.295387
rfingers 7.12502 -0 0
rthumb -0.667674 -60.7703 1.83917
243
root 6.11463 15.8042 -25.7421 8.6708 32.9802 -7.1025
lfemur -41.744 31.517 -10.9438
ltibia 50.8955 0 0
lfoot -17.351 5.15004 0
ltoes 14.9049 0 0
rfemur -9.8996 -1.31773 4.27798
rtibia 31.7881 0 0
rfoot -45.2598 -21.9724 0
rtoes 56.0306 0 0
lowerback 0.588524 -2.87985 2.58195
upperback -1.5863 -3.71812 3.96222
thorax -1.86092 -1.85864 2.70796
lowerneck -9.56054 -3.58444 0.0816116
upperneck 2.14816 -4.78118 0.0038659
head 2.32481 -2.37782 -0.246784
lclavicle 1.0461e-014 -5.96354e-015 0
lhumerus -56.3364 -31.4805 123.01
lradius 63.3965 0 0
lwrist 17.2087 0 0
lhand 2.98637 11.2617 0
lfingers 7.12502 0 0
lthumb 28.4475 39.1191 0
rclavicle 1.0461e-014 -5.96354e-015 0
rhumerus -36.9016 -24.5766 -66.1448
rradius 82.0446 0 0
rwrist -37.374 0 0
rhand -34.1763 -33.6137 0
rfingers 7.12502 0 0
rthumb -7.34973 -783.466 0
244
root 6.21543 15.8414 -25.7374 8.65459 34.4634 -6.519
lfemur -41.061 30.477 -11.5246
ltibia 50.1771 -0 0
lfoot -17.1796 3.75167 -0.0210224
ltoes 18.5598 -0 0
rfemur -10.7122 -0.821118 4.0049
rtibia 34.8241 -0 0
rfoot -39.516 -20.8094 0.640509
rtoes 50.0457 -0 0
lowerback 0.736184 -2.85101 2.20503
upperback -1.50539 -3.68467 3.84022
thorax -1.84701 -1.83836 2.79696
lowerneck -9.57382 -3.99808 -0.126215
upperneck 2.19167 -5.31082 0.0688864
head 2.35497 -2.64128 -0.22052
lclavicle -2.74323e-014 -2.0276e-014 0
lhumerus -55.8521 -31.7135 122.621
lradius 63.2048 -0 0
lwrist 17.4822 0 0
lhand 3.41103 11.3116 0.00185068
lfingers 7.12502 -0 0
lthumb 28.8524 39.093 -0.000922282
rclavicle -2.74323e-014 -2.0276e-014 0
rhumerus -37.4668 -22.822 -66.1478
rradius 78.0506 -0 0
rwrist -30.1072 0 0
rhand -32.3741 -30.8001 0.455756
rfingers 7.12502 -0 0
rthumb -5.61032 -60.6305 0.443169
245
root 6.31624 15.8786 -25.7326 8.65674 35.9467 -5.92526
lfemur -40.3731 29.443 -12.1135
ltibia 49.4587 -0 0
lfoot -17.0077 2.35324 -0.0378557
ltoes 22.2147 -0 0
rfemur -11.5271 -0.328434 3.72483
rtibia 37.86 -0 0
rfoot -33.7596 -19.588 1.16128
rtoes 44.0608 -0 0
lowerback 0.883647 -2.82119 1.82819
upperback -1.42456 -3.65104 3.71828
thorax -1.83307 -1.81811 2.88596
lowerneck -9.5856 -4.41176 -0.334055
upperneck 2.23461 -5.84052 0.133561
head 2.38502 -2.90475 -0.19439
lclavicle -2.74323e-014 -2.0276e-014 0
lhumerus -55.3647 -31.9436 122.229
lradius 63.0131 -0 0
lwrist 17.7558 0 0
lhand 3.8357 11.3615 0.00333134
lfingers 7.12502 -0 0
lthumb 29.2573 39.0669 -0.00166016
rclavicle -2.74323e-014 -2.0276e-014 0
rhumerus -38.0252 -21.0675 -66.1692
rradius 74.0565 -0 0
rwrist -22.8404 0 0
rhand -30.5516 -27.9732 0.822281
rfingers 7.12502 -0 0
rthumb -3.85098 -57.7826 0.799553
246
root 6.41704 15.9159 -25.7279 8.67828 37.4299 -5.31988
lfemur -39.6799 28.4153 -12.7107
ltibia 48.7402 -0 0
lfoot -16.8355 0.954765 -0.0504895
ltoes 25.8696 -0 0
rfemur -12.3443 0.160211 3.43778
rtibia 40.896 -0 0
rfoot -27.9922 -18.3203 1.5568
rtoes 38.0758 -0 0
lowerback 1.03091 -2.79041 1.45145
upperback -1.3438 -3.61725 3.59639
thorax -1.8191 -1.79787 2.97496
lowerneck -9.59589 -4.82548 -0.541931
upperneck 2.277 -6.37026 0.197901
head 2.41496 -3.16823 -0.168391
lclavicle -2.74323e-014 -2.0276e-014 0
lhumerus -54.8743 -32.171 121.833
lradius 62.8214 -0 0
lwrist 18.0293 0 0
lhand 4.26036 11.4115 0.00444191
lfingers 7.12502 -0 0
lthumb 29.6622 39.0408 -0.00221361
rclavicle -2.74323e-014 -2.0276e-014 0
rhumerus -38.578 -19.3133 -66.2086
rradius 70.0625 -0 0
rwrist -15.5736 0 0
rhand -28.713 -25.1359 1.09831
rfingers 7.12502 -0 0
rthumb -2.07595 -54.9249 1.06793
247
root 6.51784 15.9531 -25.7232 8.72041 38.9128 -4.70134
lfemur -38.9812 27.3939 -13.3163
ltibia 48.0218 -0 0
lfoot -16.663 -0.44374 -0.0589163
ltoes 29.5245 -0 0
rfemur -13.1641 0.644707 3.14378
rtibia 43.932 -0 0
rfoot -22.2166 -17.019 1.82287
rtoes 32.0909 -0 0
lowerback 1.17796 -2.75866 1.07479
upperback -1.26312 -3.58328 3.47455
thorax -1.8051 -1.77766 3.06397
lowerneck -9.60467 -5.23924 -0.749865
upperneck 2.31883 -6.90005 0.261915
head 2.44478 -3.43173 -0.142523
lclavicle -2.74323e-014 -2.0276e-014 0
lhumerus -54.3808 -32.3954 121.434
lradius 62.6297 -0 0
lwrist 18.3028 0 0
lhand 4.68503 11.4614 0.00518233
lfingers 7.12502 -0 0
lthumb 30.0671 39.0147 -0.00258258
rclavicle -2.74323e-014 -2.0276e-014 0
rhumerus -39.1264 -17.5595 -66.2653
rradius 66.0685 -0 0
rwrist -8.3068 0 0
rhand -26.8629 -22.291 1.28287
rfingers 7.12502 -0 0
rthumb -0.289613 -52.0601 1.24738
248
root 6.61865 15.9903 -25.7185 8.78446 40.3952 -4.06796
lfemur -38.2768 26.3792 -13.9302
ltibia 47.3034 -0 0
lfoot -16.4904 -1.84226 -0.063131
ltoes 33.1794 -0 0
rfemur -13.9864 1.12494 2.84283
rtibia 46.968 -0 0
rfoot -16.4357 -15.6974 1.95662
rtoes 26.106 -0 0
lowerback 1.32479 -2.72595 0.698224
upperback -1.18252 -3.54915 3.35276
thorax -1.79107 -1.75747 3.15299
lowerneck -9.61195 -5.65302 -0.957879
upperneck 2.36011 -7.42988 0.325613
head 2.4745 -3.69524 -0.116786
lclavicle -2.74323e-014 -2.0276e-014 0
lhumerus -53.8842 -32.6169 121.032
lradius 62.438 -0 0
lwrist 18.5764 0 0
lhand 5.10969 11.5114 0.00555254
lfingers 7.12502 -0 0
lthumb 30.472 38.9886 -0.00276708
rclavicle -2.74323e-014 -2.0276e-014 0
rhumerus -39.6717 -15.8063 -66.3389
rradius 62.0744 -0 0
rwrist -1.04 0 0
rhand -25.0058 -19.4415 1.37532
rfingers 7.12502 -0 0
rthumb 1.50356 -49.1908 1.33726
249
root 6.71945 16.0275 -25.7137 8.87198 41.8771 -3.41788
lfemur -37.5664 25.3714 -14.5527
ltibia 46.585 -0 0
lfoot -16.3177 -3.2408 -0.063131
ltoes 36.8342 -0 0
rfemur -14.8115 1.6008 2.53496
rtibia 50.0039 -0 0
rfoot -10.6531 -14.3689 1.95662
rtoes 20.1211 -0 0
lowerback 1.4714 -2.69227 0.321756
upperback -1.10199 -3.51484 3.23103
thorax -1.77701 -1.7373 3.242
lowerneck -9.61772 -6.06683 -1.16599
upperneck 2.40085 -7.95976 0.389005
head 2.5041 -3.95877 -0.0911772
lclavicle -2.74323e-014 -2.0276e-014 0
lhumerus -53.3845 -32.8354 120.627
lradius 62.2463 -0 0
lwrist 18.8499 0 0
lhand 5.53436 11.5613 0.00555254
lfingers 7.12502 -0 0
lthumb 30.877 38.9625 -0.00276708
rclavicle -2.74323e-014 -2.0276e-014 0
rhumerus -40.2148 -14.0539 -66.4291
rradius 58.0804 -0 0
rwrist 6.2268 0 0
rhand -23.1464 -16.5904 1.37532
rfingers 7.12502 -0 0
rthumb 3.29901 -46.3202 1.33726
250
root 6.82026 16.0647 -25.709 8.98472 43.358 -2.74904
lfemur -36.8497 24.3705 -15.1838
ltibia 45.8666 -0 0
lfoot -16.1451 -4.63932 -0.0589163
ltoes 40.4891 -0 0
rfemur -15.6392 2.07216 2.22019
rtibia 53.0399 -0 0
rfoot -4.87223 -13.0473 1.82287
rtoes 14.1362 -0 0
lowerback 1.61778 -2.65764 -0.0546153
upperback -1.02153 -3.48036 3.10935
thorax -1.76291 -1.71716 3.33102
lowerneck -9.62199 -6.48066 -1.37423
upperneck 2.44105 -8.48968 0.452101
head 2.5336 -4.22231 -0.0656967
lclavicle -2.74323e-014 -2.0276e-014 0
lhumerus -52.8818 -33.051 120.218
lradius 62.0546 -0 0
lwrist 19.1235 0 0
lhand 5.95902 11.6113 0.00518233
lfingers 7.12502 -0 0
lthumb 31.2819 38.9364 -0.00258258
rclavicle -2.74323e-014 -2.0276e-014 0
rhumerus -40.7569 -12.3023 -66.5357
rradius 54.0863 -0 0
rwrist 13.4936 0 0
rhand -21.2893 -13.7408 1.28287
rfingers 7.12502 -0 0
rthumb 5.09218 -43.4509 1.24738
